<svg width="1179" height="255" viewBox="0 0 1179 255" fill="none" xmlns="http://www.w3.org/2000/svg">
<path d="M236.402 141.815C236.402 179.835 216.835 200.706 164.863 200.706H0V0H159.676C210.043 0 228.978 20.8017 228.978 52.0042C228.978 73.8957 218.072 86.1929 200.422 91.3241V93.0799C220.457 97.7895 236.402 109.771 236.402 141.815ZM158.006 62.1607C158.006 50.8473 151.754 45.8545 138.854 45.8545H65.3608V78.3933H138.854C151.714 78.3933 158.006 73.4048 158.006 62.1607ZM164.575 136.794C164.575 124.317 158.751 118.239 142.835 118.239H65.3608V155.273H142.835C158.718 155.273 164.575 149.231 164.575 136.794ZM460.488 0H524.948V33.2632H460.488V0ZM461.045 50.936H524.384V200.706H461.045V50.936ZM679.95 67.2941V0H743.289V200.706H681.107V184.558H679.421C665.868 198.695 646.455 206.873 621.058 206.873C567.945 206.873 533.898 178.944 533.898 126.964C533.898 74.9531 567.945 47.0568 621.058 47.0568C646.455 47.0568 665.059 55.0617 678.271 67.2941H679.95ZM681.983 126.964C681.983 105.308 668.318 91.309 640.151 91.309C612.755 91.309 599.759 104.372 599.759 126.964C599.759 149.558 612.755 162.623 640.151 162.623C668.318 162.623 681.983 148.626 681.983 126.964ZM1178.16 140.55H1033.05C1035.89 159.505 1048.43 168.377 1072.89 168.377C1100.77 168.377 1107.22 157.288 1108.9 154.272H1176.79C1175.07 179.707 1154.69 206.873 1072.89 206.873C1000.72 206.873 966.774 176.933 966.774 125.787C966.774 74.7455 1000.72 44.7366 1072.89 44.7366C1145.05 44.7366 1179 74.7476 1179 125.824C1179 129.738 1178.72 136.288 1178.16 140.55ZM1034.38 104.925H1111.39C1106.83 90.1305 1094.5 83.2327 1072.89 83.2327C1051.27 83.2327 1038.94 90.1305 1034.38 104.925ZM958.55 50.936V191.451C958.55 230.609 945.486 255 857.377 255C772.07 255 758.233 227.835 755.848 200.667H824.726C825.808 207.597 830.154 216.504 857.377 216.504C890.063 216.504 895.211 207.597 895.211 191.451V168.688H893.53C881.513 181.269 861.616 188.506 837.095 188.506C785.244 188.506 751.928 164.772 751.928 117.785C751.928 70.7581 785.244 47.0568 837.095 47.0568C861.616 47.0568 882.318 54.333 894.686 68.1266H896.367V50.936H958.55ZM896.472 117.785C896.472 101.081 884.036 89.9229 856.393 89.9229C830.259 89.9229 817.79 100.456 817.79 117.785C817.79 135.109 830.259 145.646 856.393 145.646C884.036 145.646 896.472 134.487 896.472 117.785ZM451.525 108.59C430.456 69.904 388.571 45.1344 344.111 45.368C299.649 45.1366 257.771 69.9062 236.704 108.59L293.145 138.906C315.496 98.9161 372.713 98.8944 395.083 138.906L451.525 108.59Z" fill="#FFFEFF"/>
</svg>
