<svg width="18" height="18" viewBox="0 0 18 18" fill="none" xmlns="http://www.w3.org/2000/svg">
<g clip-path="url(#clip0_1_485)">
<path d="M10.3761 0L10.008 1.7244C6.38459 1.7829 4.07879 3.5073 4.07879 6.2199C4.07879 8.0991 5.12549 9.1845 7.56629 9.8046C8.37989 10.0179 9.34919 10.2114 10.008 10.386C11.4228 10.7541 11.9646 11.2194 11.9646 12.033C11.9646 13.176 10.7442 13.8735 8.80649 13.8735C6.84989 13.8735 5.28029 12.9051 4.54409 11.2383L2.12219 12.4011C2.93579 14.3388 4.71869 15.6951 6.96599 16.1604L6.57809 18.0009H8.49599L8.84519 16.335C12.5847 16.2963 14.9877 14.4747 14.9877 11.6658C14.9877 9.7281 13.7862 8.5464 11.151 7.8876C10.2213 7.6554 9.58139 7.5582 8.84519 7.3836C7.56629 7.074 7.08209 6.6861 7.08209 5.9688C7.08209 4.8447 8.18639 4.167 10.0467 4.167C11.5776 4.167 12.8367 4.8645 13.7088 6.201L15.8787 4.6701C14.9877 3.2553 13.5729 2.2869 11.8872 1.9188L12.294 0.0009H10.3761V0Z" fill="white"/>
</g>
<defs>
<clipPath id="clip0_1_485">
<rect width="18" height="18" fill="white"/>
</clipPath>
</defs>
</svg>
