<svg width="142" height="68" viewBox="0 0 142 68" fill="none" xmlns="http://www.w3.org/2000/svg">
<path d="M28.9102 54.0138C28.9102 58.5574 26.5783 61.0516 20.3846 61.0516H0.736904V37.0663H19.7664C25.7688 37.0663 28.0255 39.5522 28.0255 43.281C28.0255 45.8972 26.7257 47.3668 24.6223 47.98V48.1898C27.01 48.7526 28.9102 50.1844 28.9102 54.0138ZM19.5673 44.4948C19.5673 43.1428 18.8222 42.5461 17.2849 42.5461H8.52632V46.4347H17.2849C18.8175 46.4347 19.5673 45.8385 19.5673 44.4948ZM20.3502 53.4138C20.3502 51.9228 19.6562 51.1964 17.7593 51.1964H8.52632V55.6222H17.7593C19.6523 55.6222 20.3502 54.9002 20.3502 53.4138ZM55.6158 37.0663H63.2979V41.0414H55.6158V37.0663ZM55.6822 43.1534H63.2306V61.0516H55.6822V43.1534ZM81.7703 45.1083V37.0663H89.3188V61.0516H81.9081V59.1218H81.7073C80.092 60.8113 77.7786 61.7886 74.7518 61.7886C68.4221 61.7886 64.3645 58.451 64.3645 52.2391C64.3645 46.0235 68.4221 42.6898 74.7518 42.6898C77.7786 42.6898 79.9956 43.6464 81.5702 45.1083H81.7703ZM82.0126 52.2391C82.0126 49.6511 80.3841 47.9781 77.0272 47.9781C73.7623 47.9781 72.2135 49.5392 72.2135 52.2391C72.2135 54.9392 73.7623 56.5005 77.0272 56.5005C80.3841 56.5005 82.0126 54.8278 82.0126 52.2391ZM141.144 53.8626H123.851C124.19 56.1279 125.684 57.1881 128.599 57.1881C131.922 57.1881 132.69 55.863 132.891 55.5025H140.982C140.777 58.5422 138.347 61.7886 128.599 61.7886C119.998 61.7886 115.953 58.2106 115.953 52.0985C115.953 45.9987 119.998 42.4125 128.599 42.4125C137.199 42.4125 141.245 45.999 141.245 52.1029C141.245 52.5706 141.212 53.3533 141.144 53.8626ZM124.01 49.6054H133.187C132.644 47.8373 131.174 47.013 128.599 47.013C126.022 47.013 124.553 47.8373 124.01 49.6054ZM114.973 43.1534V59.9456C114.973 64.6251 113.416 67.54 102.915 67.54C92.7488 67.54 91.0997 64.2936 90.8155 61.0469H99.0241C99.153 61.8751 99.6709 62.9395 102.915 62.9395C106.811 62.9395 107.424 61.8751 107.424 59.9456V57.2253H107.224C105.792 58.7287 103.42 59.5936 100.498 59.5936C94.3187 59.5936 90.3483 56.7573 90.3483 51.1421C90.3483 45.5222 94.3187 42.6898 100.498 42.6898C103.42 42.6898 105.888 43.5593 107.362 45.2077H107.562V43.1534H114.973ZM107.574 51.1421C107.574 49.1459 106.092 47.8125 102.798 47.8125C99.6834 47.8125 98.1974 49.0712 98.1974 51.1421C98.1974 53.2125 99.6834 54.4717 102.798 54.4717C106.092 54.4717 107.574 53.1381 107.574 51.1421ZM54.5476 50.0434C52.0367 45.4202 47.0451 42.4601 41.7465 42.488C36.4477 42.4603 31.4569 45.4204 28.9462 50.0434L35.6727 53.6663C38.3363 48.8872 45.1552 48.8846 47.8212 53.6663L54.5476 50.0434Z" fill="#FFFEFF"/>
<path d="M47.3846 28.4637C40.7852 16.6274 23.9058 16.6339 17.3124 28.4637L0.662159 19.4957C6.87703 8.05226 19.2313 0.725004 32.3476 0.793623C45.4637 0.724388 57.8198 8.05165 64.035 19.4957L47.3846 28.4637Z" fill="#FFFEFF"/>
</svg>
