<svg width="37" height="42" viewBox="0 0 37 42" fill="none" xmlns="http://www.w3.org/2000/svg">
<path fill-rule="evenodd" clip-rule="evenodd" d="M20.344 4.03614C23.0457 0.435729 26.801 0.417969 26.801 0.417969C26.801 0.417969 27.3597 3.80321 24.6761 7.06485C21.8103 10.5471 18.5535 9.97742 18.5535 9.97742C18.5535 9.97742 17.9422 7.23902 20.344 4.03684V4.03614Z" fill="black"/>
<path fill-rule="evenodd" clip-rule="evenodd" d="M18.897 11.9473C20.287 11.9473 22.8658 10.0156 26.2233 10.0156C32.0021 10.0156 34.2756 14.1741 34.2756 14.1741C34.2756 14.1741 29.8294 16.4733 29.8294 22.0519C29.8294 28.345 35.3685 30.5137 35.3685 30.5137C35.3685 30.5137 31.4962 41.5355 26.2665 41.5355C23.864 41.5355 21.9971 39.8981 19.4657 39.8981C16.9342 39.8981 14.3271 41.5962 12.6602 41.5962C7.88431 41.597 1.8508 31.142 1.8508 22.7376C1.8508 14.3333 6.95764 10.1311 11.7477 10.1311C14.8614 10.1311 17.278 11.9473 18.897 11.9473Z" fill="black"/>
</svg>
