<svg width="17" height="19" viewBox="0 0 17 19" fill="none" xmlns="http://www.w3.org/2000/svg">
<g clip-path="url(#clip0_1_504)">
<path fill-rule="evenodd" clip-rule="evenodd" d="M9.34731 1.82605C10.5886 0.197293 12.314 0.189259 12.314 0.189259C12.314 0.189259 12.5707 1.72068 11.3377 3.19618C10.021 4.77148 8.52463 4.51377 8.52463 4.51377C8.52463 4.51377 8.24378 3.27497 9.34731 1.82637V1.82605Z" fill="black"/>
<path fill-rule="evenodd" clip-rule="evenodd" d="M8.68238 5.40492C9.32104 5.40492 10.5059 4.53105 12.0485 4.53105C14.7037 4.53105 15.7482 6.41227 15.7482 6.41227C15.7482 6.41227 13.7054 7.45238 13.7054 9.97604C13.7054 12.8229 16.2504 13.804 16.2504 13.804C16.2504 13.804 14.4712 18.79 12.0684 18.79C10.9645 18.79 10.1068 18.0493 8.94368 18.0493C7.78057 18.0493 6.58271 18.8175 5.81682 18.8175C3.62249 18.8179 0.850342 14.0882 0.850342 10.2862C0.850342 6.48427 3.19673 4.58327 5.39757 4.58327C6.82818 4.58327 7.93853 5.40492 8.68238 5.40492Z" fill="black"/>
</g>
<defs>
<clipPath id="clip0_1_504">
<rect width="17" height="19" fill="white"/>
</clipPath>
</defs>
</svg>
