<svg width="617" height="295" viewBox="0 0 617 295" fill="none" xmlns="http://www.w3.org/2000/svg">
<g opacity="0.208965">
<path d="M579.728 82.0678L567.678 139.633H602.681L614.923 80.729C615.688 76.7126 616.262 72.1234 616.262 68.107C616.262 48.0261 603.829 35.0222 584.702 35.0222C566.913 35.0222 553.907 43.8188 547.021 60.4572H546.064L558.88 0.0246887H523.876L494.42 139.633H529.423L541.474 82.8327C545.108 69.2548 553.715 62.179 566.722 62.179C575.712 62.179 580.494 66.7693 580.494 75.3749C580.494 77.2876 580.302 79.1993 579.728 82.0678Z" fill="white"/>
<path d="M429.234 71.1676C429.234 60.4583 437.459 53.3813 449.509 53.3813C458.69 53.3813 463.854 57.2067 463.854 64.0917C463.854 74.801 456.012 81.8769 443.77 81.8769C434.206 81.8769 429.234 78.2434 429.234 71.1676ZM403.411 151.107C403.411 145.37 408.193 141.737 416.227 141.737H443.962C456.969 141.737 461.559 143.266 461.559 147.283C461.559 155.888 448.361 161.243 428.086 161.243C412.21 161.243 403.411 157.801 403.411 151.107ZM421.009 179.795C466.15 179.795 492.738 164.304 492.738 137.912C492.738 122.422 479.731 113.432 457.16 113.432H417.757C411.445 113.432 407.62 111.137 407.62 107.695C407.62 103.297 412.975 99.2801 420.435 97.5594C426.747 99.2801 434.015 100.236 442.049 100.236C476.862 100.427 498.858 86.4672 498.858 64.0917C498.858 54.5292 493.311 46.8793 483.556 41.7162L518.751 7.10057L518.942 6.14369H484.704L475.713 38.4647C468.827 36.17 460.602 35.0222 451.421 35.0222C416.418 35.0222 394.422 49.174 394.422 71.1676C394.422 80.7301 399.969 88.5708 409.724 93.5431L409.532 94.4989C390.405 97.5584 378.355 108.46 378.355 122.421C378.355 132.748 386.58 139.633 399.969 140.398L399.777 141.546C384.475 142.693 376.059 148.621 376.059 158.566C376.059 171.379 394.039 179.795 421.009 179.795Z" fill="white"/>
<path d="M302.86 141.927C320.458 141.927 333.082 133.896 341.498 116.683H342.455L337.481 139.633H371.528L393.142 37.3168H358.139L345.897 95.0728C342.072 108.078 333.465 114.771 320.841 114.771C311.85 114.771 307.068 109.989 307.068 101.575C307.068 99.6621 307.259 97.7504 307.833 94.8819L319.884 37.3168H284.88L272.447 96.6026C271.491 101.001 270.917 105.4 270.917 109.225C270.917 129.115 283.541 141.927 302.86 141.927Z" fill="white"/>
<path d="M185.882 96.6026C185.882 75.5659 198.315 59.5014 214.573 59.5014C227.006 59.5014 234.848 67.5342 234.848 80.3471C234.848 101.193 222.415 117.448 206.157 117.448C193.533 117.448 185.882 109.608 185.882 96.6026ZM204.626 141.927C243.455 141.927 270.042 117.448 270.042 81.6859C270.042 53.5733 248.428 35.0222 216.103 35.0222C177.274 35.0222 150.687 59.5014 150.687 95.2638C150.687 123.376 172.301 141.927 204.626 141.927Z" fill="white"/>
<path d="M41.6103 110.372L58.8254 29.2851H80.2486C104.35 29.2851 116.973 39.2295 116.973 58.5455C116.973 89.7187 96.8886 110.372 66.6674 110.372H41.6103ZM0.485962 139.633H64.9464C117.93 139.633 152.933 107.504 152.933 58.9275C152.933 23.1651 126.537 0.0246887 85.6036 0.0246887H29.9432L0.485962 139.633Z" fill="white"/>
</g>
<path d="M513.114 248.431C513.114 228.924 526.695 213.05 543.527 213.05C558.638 213.05 566.862 224.715 563.228 241.163L562.463 245.179C562.08 246.518 561.889 247.856 561.315 249.004V249.387C556.724 261.627 545.823 269.849 532.816 269.849C520.766 269.849 513.114 261.627 513.114 248.431ZM581.592 153L568.775 213.624H568.01C564.376 197.369 551.752 187.997 533.581 187.997C501.447 187.997 477.729 214.772 477.729 251.299C477.729 277.691 493.031 294.902 516.749 294.902C534.346 294.902 547.735 286.489 556.151 270.041H556.916L552.134 292.608H587.138L616.595 153H581.592Z" fill="white"/>
<path d="M388.565 262.009C388.565 256.653 392.965 252.638 401.381 250.151L430.646 241.928L428.542 251.681C422.23 262.009 409.032 269.849 398.129 269.849C392.199 269.849 388.565 266.981 388.565 262.009ZM381.871 294.902C399.66 294.902 415.153 285.532 425.864 268.703H426.82L426.437 271.188C425.098 284.001 435.81 294.521 450.538 294.521C458.189 294.521 466.222 292.99 472.917 290.121L477.89 265.451C474.83 266.79 471.387 267.364 468.709 267.364C463.162 267.364 460.867 262.965 462.588 255.507L467.561 233.896C474.256 205.591 456.85 187.997 422.612 187.997C395.068 187.997 375.559 198.516 362.361 220.509L388.948 231.027C396.79 218.022 407.119 211.138 418.978 211.138C430.263 211.138 436.001 217.258 434.088 227.011L386.079 237.912C363.126 243.268 352.222 253.211 352.222 268.894C352.222 284.002 364.656 294.902 381.871 294.902Z" fill="white"/>
<path d="M278.082 230.454C282.864 219.17 292.045 211.902 303.33 211.902C315.38 211.902 322.075 218.405 323.031 230.454H278.082ZM350.957 259.523L322.84 251.299C317.484 263.73 308.303 270.041 295.488 270.041C281.908 270.041 274.256 262.964 274.256 250.151C274.256 248.813 274.257 247.283 274.448 245.944H353.826C354.591 242.12 354.783 238.103 354.783 234.087C354.783 206.356 334.508 187.997 303.713 187.997C266.606 187.997 239.827 214.006 239.827 250.151C239.827 276.543 260.676 294.902 290.897 294.902C320.736 294.902 338.907 284.002 350.957 259.523Z" fill="white"/>
<path d="M243.315 220.509L249.818 190.101C246.566 188.953 241.594 187.997 237.003 187.997C232.221 187.997 226.866 189.145 222.849 190.675C211.181 195.456 203.53 205.591 196.453 227.011H195.688L203.339 190.292H169.291L147.677 292.608H182.68L190.715 254.742C196.453 233.514 212.902 218.787 231.456 218.787C235.473 218.787 239.49 219.361 243.315 220.509Z" fill="white"/>
<path d="M67.1528 209.99L73.2739 181.303H107.703C118.414 181.303 123.961 185.129 123.961 192.396C123.961 203.679 115.736 209.99 100.817 209.99H67.1528ZM55.6757 264.303L61.7968 235.043H96.9921C109.807 235.043 116.119 239.059 116.119 246.9C116.119 258.374 107.703 264.303 91.062 264.303H55.6757ZM14.5514 292.608H94.505C130.656 292.608 152.652 276.734 152.652 250.916C152.652 235.234 140.602 223.569 123.579 222.804L123.77 222.039C145.958 220.509 160.686 206.357 160.686 186.467C160.686 167.151 142.897 153 118.414 153H44.0087L14.5514 292.608Z" fill="white"/>
<path d="M501.372 83.708C506.154 72.4248 515.335 65.1569 526.62 65.1569C538.67 65.1569 545.366 71.6599 546.322 83.708H501.372ZM574.249 112.777L546.13 104.554C540.774 116.985 531.593 123.296 518.778 123.296C505.198 123.296 497.547 116.219 497.547 103.406C497.547 102.067 497.547 100.537 497.738 99.1986H577.118C577.883 95.3742 578.074 91.3578 578.074 87.3414C578.074 59.6108 557.798 41.2516 527.003 41.2516C489.896 41.2516 463.117 67.2606 463.117 103.406C463.117 129.798 483.967 148.157 514.188 148.157C544.027 148.157 562.199 137.257 574.249 112.777Z" fill="white"/>
<path d="M378.774 6.25414L349.318 145.862H384.321L390.251 117.367L411.673 101.111L433.861 145.862H470.395L437.687 82.9431L489.713 43.5463H445.912L398.093 80.4565L413.777 6.25414H378.774Z" fill="white"/>
<path d="M260.111 115.263C260.111 109.908 264.511 105.893 272.927 103.406L302.192 95.1822L300.088 104.936C293.776 115.263 280.578 123.104 269.675 123.104C263.745 123.104 260.111 120.235 260.111 115.263ZM253.417 148.157C271.206 148.157 286.699 138.786 297.41 121.957H298.366L297.984 124.443C296.645 137.256 307.356 147.775 322.085 147.775C329.736 147.775 337.769 146.244 344.464 143.376L349.438 118.706C346.378 120.044 342.934 120.618 340.256 120.618C334.709 120.618 332.415 116.22 334.136 108.761L339.109 87.1505C345.804 58.8459 328.397 41.2516 294.158 41.2516C266.614 41.2516 247.105 51.77 233.907 73.7636L260.494 84.2819C268.336 71.2769 278.665 64.392 290.524 64.392C301.809 64.392 307.548 70.5121 305.635 80.2655L257.625 91.1669C234.672 96.522 223.769 106.465 223.769 122.148C223.769 137.257 236.202 148.157 253.417 148.157Z" fill="white"/>
<path d="M242.661 6.25414H189.486L136.503 103.215H135.929L125.217 6.25414H73.3815L43.9253 145.862H76.8245L98.2477 43.3553H99.3947L112.211 145.862H143.006L199.049 43.3553H199.814L178.2 145.862H213.205L242.661 6.25414Z" fill="white"/>
</svg>
